<svg width="17" height="12" viewBox="0 0 17 12" fill="none" xmlns="http://www.w3.org/2000/svg">
<path fill-rule="evenodd" clip-rule="evenodd" d="M2.17884 5.93165C2.59143 5.31094 3.4206 4.18152 4.5447 3.21477C5.67567 2.2421 7.02738 1.5 8.50001 1.5C9.97264 1.5 11.3244 2.2421 12.4553 3.21477C13.5794 4.18152 14.4086 5.31094 14.8212 5.93165C14.85 5.975 14.85 6.025 14.8212 6.06835C14.4086 6.68906 13.5794 7.81848 12.4553 8.7852C11.3244 9.7579 9.97264 10.5 8.50001 10.5C7.02738 10.5 5.67567 9.7579 4.5447 8.7852C3.4206 7.81848 2.59143 6.68906 2.17884 6.06835C2.15002 6.025 2.15002 5.975 2.17884 5.93165ZM8.50001 0C6.51865 0 4.82919 0.99167 3.56662 2.07751C2.29718 3.16926 1.38045 4.42307 0.929635 5.10129C0.566423 5.64771 0.566424 6.35229 0.929635 6.89871C1.38045 7.57693 2.29718 8.8307 3.56662 9.9225C4.82919 11.0083 6.51865 12 8.50001 12C10.4814 12 12.1708 11.0083 13.4334 9.9225C14.7028 8.8307 15.6196 7.57693 16.0704 6.89871C16.4336 6.35229 16.4336 5.64771 16.0704 5.10129C15.6196 4.42307 14.7028 3.16926 13.4334 2.07751C12.1708 0.99167 10.4814 0 8.50001 0ZM8.5 8C9.60457 8 10.5 7.10457 10.5 6C10.5 4.89543 9.60457 4 8.5 4C7.39543 4 6.5 4.89543 6.5 6C6.5 7.10457 7.39543 8 8.5 8Z" fill="white"/>
</svg>
