<svg width="35" height="31" viewBox="0 0 35 31" fill="none" xmlns="http://www.w3.org/2000/svg">
<path opacity="0.8" fill-rule="evenodd" clip-rule="evenodd" d="M30.0083 3.79153H4.2869C3.94867 3.79153 3.67448 4.0343 3.67448 4.33377V27.1079C3.67448 27.4074 3.94867 27.6501 4.2869 27.6501H30.0083C30.3466 27.6501 30.6207 27.4074 30.6207 27.1079V4.33377C30.6207 4.0343 30.3466 3.79153 30.0083 3.79153ZM4.2869 0.538086H30.0083C32.3759 0.538086 34.2952 2.23747 34.2952 4.33377V27.1079C34.2952 29.2042 32.3759 30.9036 30.0083 30.9036H4.2869C1.91931 30.9036 0 29.2042 0 27.1079V4.33377C0 2.23747 1.91931 0.538086 4.2869 0.538086ZM17.1476 7.04497C18.1623 7.04497 18.9848 7.77329 18.9848 8.67169V14.0941H25.109C26.1236 14.0941 26.9462 14.8224 26.9462 15.7208C26.9462 16.6192 26.1236 17.3475 25.109 17.3475H18.9848V22.7699C18.9848 23.6683 18.1623 24.3967 17.1476 24.3967C16.1329 24.3967 15.3103 23.6683 15.3103 22.7699V17.3475H9.18621C8.17154 17.3475 7.34897 16.6192 7.34897 15.7208C7.34897 14.8224 8.17154 14.0941 9.18621 14.0941H15.3103V8.67169C15.3103 7.77329 16.1329 7.04497 17.1476 7.04497Z" fill="#B1B1B1"/>
</svg>
