<svg width="12" height="12" viewBox="0 0 12 12" fill="none" xmlns="http://www.w3.org/2000/svg">
<path fill-rule="evenodd" clip-rule="evenodd" d="M1.02363 0.297148C1.19905 0.122313 1.43686 0.0241085 1.6848 0.0241085C1.93274 0.0241085 2.17054 0.122313 2.34597 0.297148L6.36291 4.30548L10.3799 0.297148C10.4656 0.205417 10.5688 0.131848 10.6836 0.0808228C10.7984 0.0297975 10.9223 0.00236155 11.0479 0.000145763C11.1735 -0.00207002 11.2983 0.0209966 11.4148 0.0679514C11.5313 0.114906 11.6371 0.18479 11.7259 0.273447C11.8148 0.362103 11.8848 0.467714 11.9319 0.583956C11.9789 0.70021 12.0021 0.824729 11.9999 0.950083C11.9976 1.07545 11.9702 1.19907 11.919 1.3136C11.8679 1.42812 11.7941 1.53119 11.7022 1.61666L7.68526 5.62499L11.7022 9.63332C11.7941 9.71884 11.8679 9.82191 11.919 9.93644C11.9702 10.051 11.9976 10.1746 11.9999 10.2999C12.0021 10.4253 11.9789 10.5498 11.9319 10.666C11.8848 10.7823 11.8148 10.8879 11.7259 10.9765C11.6371 11.0652 11.5313 11.1351 11.4148 11.182C11.2983 11.2289 11.1735 11.2521 11.0479 11.2499C10.9223 11.2476 10.7984 11.2202 10.6836 11.1692C10.5688 11.1181 10.4656 11.0446 10.3799 10.9528L6.36291 6.94451L2.34597 10.9528C2.1686 11.1178 1.93401 11.2075 1.69162 11.2033C1.44923 11.1989 1.21797 11.101 1.04654 10.9299C0.875124 10.7589 0.776934 10.5281 0.772655 10.2862C0.768376 10.0444 0.858358 9.81034 1.02363 9.63332L5.04057 5.62499L1.02363 1.61666C0.848415 1.44161 0.75 1.20431 0.75 0.956905C0.75 0.709496 0.848415 0.472208 1.02363 0.297148Z" fill="#F83D32"/>
</svg>
