<svg width="17" height="16" viewBox="0 0 17 16" fill="none" xmlns="http://www.w3.org/2000/svg">
<path fill-rule="evenodd" clip-rule="evenodd" d="M8.50001 0.25C8.64003 0.24991 8.77727 0.289014 8.89621 0.362887C9.01515 0.43676 9.11103 0.542452 9.17301 0.668L11.055 4.483L15.265 5.095C15.4035 5.11511 15.5336 5.17355 15.6405 5.26372C15.7475 5.35388 15.8272 5.47218 15.8704 5.60523C15.9137 5.73829 15.9189 5.8808 15.8854 6.01665C15.852 6.1525 15.7812 6.27628 15.681 6.374L12.635 9.344L13.354 13.536C13.3777 13.6739 13.3624 13.8157 13.3097 13.9454C13.257 14.0751 13.1691 14.1874 13.0559 14.2697C12.9427 14.352 12.8087 14.401 12.6691 14.4111C12.5295 14.4212 12.3899 14.3921 12.266 14.327L8.50001 12.347L4.73401 14.327C4.6102 14.392 4.47068 14.4211 4.3312 14.411C4.19173 14.4009 4.05785 14.352 3.94469 14.2699C3.83154 14.1877 3.7436 14.0755 3.69083 13.946C3.63805 13.8165 3.62252 13.6749 3.64601 13.537L4.36601 9.343L1.31801 6.374C1.21758 6.27632 1.14651 6.15247 1.11286 6.01647C1.07922 5.88047 1.08433 5.73777 1.12764 5.60453C1.17094 5.47129 1.25069 5.35284 1.35787 5.26261C1.46504 5.17238 1.59534 5.11397 1.73401 5.094L5.94401 4.483L7.82701 0.668C7.88899 0.542452 7.98488 0.43676 8.10382 0.362887C8.22276 0.289014 8.36 0.24991 8.50001 0.25ZM8.50001 2.695L7.11501 5.5C7.06123 5.6089 6.9818 5.70311 6.88356 5.77453C6.78531 5.84595 6.67119 5.89244 6.55101 5.91L3.45401 6.36L5.69401 8.544C5.78116 8.62886 5.84637 8.73365 5.884 8.84933C5.92163 8.96501 5.93056 9.0881 5.91001 9.208L5.38201 12.292L8.15101 10.836C8.25864 10.7794 8.37842 10.7499 8.50001 10.7499C8.62161 10.7499 8.74138 10.7794 8.84901 10.836L11.619 12.292L11.089 9.208C11.0685 9.0881 11.0774 8.96501 11.115 8.84933C11.1527 8.73365 11.2179 8.62886 11.305 8.544L13.545 6.361L10.449 5.911C10.3288 5.89344 10.2147 5.84695 10.1165 5.77553C10.0182 5.70411 9.9388 5.6099 9.88501 5.501L8.50001 2.694V2.695Z" fill="white"/>
</svg>
