<svg width="17" height="16" viewBox="0 0 17 16" fill="none" xmlns="http://www.w3.org/2000/svg">
<path fill-rule="evenodd" clip-rule="evenodd" d="M5.5 3.25005C5.5 3.44896 5.42099 3.63973 5.28033 3.78038C5.13968 3.92103 4.94892 4.00005 4.75 4.00005C4.55109 4.00005 4.36033 3.92103 4.21967 3.78038C4.07902 3.63973 4 3.44896 4 3.25005C4 3.05113 4.07902 2.86037 4.21967 2.71972C4.36033 2.57906 4.55109 2.50005 4.75 2.50005C4.94892 2.50005 5.13968 2.57906 5.28033 2.71972C5.42099 2.86037 5.5 3.05113 5.5 3.25005ZM5.5 5.37205C6.00042 5.19513 6.42217 4.847 6.69073 4.38919C6.95929 3.93138 7.05735 3.39337 6.9676 2.87025C6.87785 2.34713 6.60605 1.87257 6.20025 1.53047C5.79445 1.18836 5.28077 1.00073 4.75 1.00073C4.21924 1.00073 3.70556 1.18836 3.29976 1.53047C2.89396 1.87257 2.62216 2.34713 2.53241 2.87025C2.44265 3.39337 2.54072 3.93138 2.80928 4.38919C3.07784 4.847 3.49959 5.19513 4 5.37205V6.25005C4 6.84678 4.23706 7.41908 4.65901 7.84104C5.08097 8.26299 5.65327 8.50005 6.25 8.50005H7.75V10.628C7.24932 10.8049 6.8273 11.1532 6.55855 11.6112C6.28981 12.0692 6.19164 12.6075 6.28139 13.1309C6.37115 13.6543 6.64306 14.1291 7.04905 14.4714C7.45504 14.8136 7.96897 15.0014 8.5 15.0014C9.03104 15.0014 9.54497 14.8136 9.95096 14.4714C10.357 14.1291 10.6289 13.6543 10.7186 13.1309C10.8084 12.6075 10.7102 12.0692 10.4415 11.6112C10.1727 11.1532 9.75069 10.8049 9.25 10.628V8.50005H10.75C11.3467 8.50005 11.919 8.26299 12.341 7.84104C12.763 7.41908 13 6.84678 13 6.25005V5.37205C13.5004 5.19513 13.9222 4.847 14.1907 4.38919C14.4593 3.93138 14.5574 3.39337 14.4676 2.87025C14.3778 2.34713 14.1061 1.87257 13.7002 1.53047C13.2944 1.18836 12.7808 1.00073 12.25 1.00073C11.7192 1.00073 11.2056 1.18836 10.7998 1.53047C10.394 1.87257 10.1222 2.34713 10.0324 2.87025C9.94265 3.39337 10.0407 3.93138 10.3093 4.38919C10.5778 4.847 10.9996 5.19513 11.5 5.37205V6.25005C11.5 6.44896 11.421 6.63973 11.2803 6.78038C11.1397 6.92103 10.9489 7.00005 10.75 7.00005H6.25C6.05109 7.00005 5.86033 6.92103 5.71967 6.78038C5.57902 6.63973 5.5 6.44896 5.5 6.25005V5.37205ZM9.25 12.75C9.25 12.9489 9.17099 13.1397 9.03033 13.2803C8.88968 13.421 8.69892 13.5 8.5 13.5C8.30109 13.5 8.11033 13.421 7.96967 13.2803C7.82902 13.1397 7.75 12.9489 7.75 12.75C7.75 12.5511 7.82902 12.3603 7.96967 12.2197C8.11033 12.079 8.30109 12 8.5 12C8.69892 12 8.88968 12.079 9.03033 12.2197C9.17099 12.3603 9.25 12.5511 9.25 12.75ZM12.25 4.00005C12.4489 4.00005 12.6397 3.92103 12.7803 3.78038C12.921 3.63973 13 3.44896 13 3.25005C13 3.05113 12.921 2.86037 12.7803 2.71972C12.6397 2.57906 12.4489 2.50005 12.25 2.50005C12.0511 2.50005 11.8603 2.57906 11.7197 2.71972C11.579 2.86037 11.5 3.05113 11.5 3.25005C11.5 3.44896 11.579 3.63973 11.7197 3.78038C11.8603 3.92103 12.0511 4.00005 12.25 4.00005Z" fill="white"/>
</svg>
