<svg width="119" height="30" viewBox="0 0 119 30" fill="none" xmlns="http://www.w3.org/2000/svg">
<path d="M5.64838 11.799H0V17.4473H5.64838V11.799Z" fill="white"/>
<path d="M11.2968 6.15228H5.64839V11.8007H11.2968V6.15228Z" fill="white"/>
<path d="M11.2968 17.4473H5.64839V23.0957H11.2968V17.4473Z" fill="white"/>
<path d="M33.8867 17.4473H39.535V11.7989H33.8867V17.4473Z" fill="white"/>
<path d="M28.2383 23.0938H33.8866V17.4454H28.2383V23.0938Z" fill="white"/>
<path d="M28.2387 11.7988H33.8871V6.15046L28.2387 6.15046V11.7988Z" fill="white"/>
<path d="M16.9433 0.5H11.2949V6.14837H16.9433V0.5Z" fill="white"/>
<path d="M16.9433 23.0938H11.2949V28.7421H16.9433V23.0938Z" fill="white"/>
<path d="M28.2416 0.5H22.5932V6.14837H28.2416V0.5Z" fill="white"/>
<path d="M28.2416 23.0938H22.5932V28.7421H28.2416V23.0938Z" fill="white"/>
<path d="M50.8343 14.8316C50.8343 11.3532 53.2511 8.89209 56.5258 8.89209C59.0721 8.89209 61.3804 10.3147 61.7646 13.047H59.4618C59.1906 11.8724 58.1068 10.9015 56.5258 10.9015C54.5331 10.9015 53.1149 12.5732 53.1149 14.8316C53.1149 16.9993 54.4246 18.6256 56.5469 18.6256C58.1057 18.6256 59.0766 17.8573 59.505 16.6384H61.8089C61.4026 19.074 59.3478 20.635 56.5469 20.635C53.0706 20.635 50.8343 18.1507 50.8343 14.8316Z" fill="white"/>
<path d="M63.321 14.7641C63.321 11.3321 65.7564 8.89648 69.0773 8.89648C72.3983 8.89648 74.8813 11.3575 74.8813 14.7641C74.8813 18.1706 72.3972 20.6316 69.0773 20.6316C65.7829 20.6361 63.321 18.1518 63.321 14.7641ZM72.602 14.7641C72.602 12.6418 71.1795 10.9025 69.0795 10.9025C66.9796 10.9025 65.6025 12.6418 65.6025 14.7641C65.6025 16.8675 66.9796 18.6267 69.0795 18.6267C71.1795 18.6267 72.6031 16.8653 72.6031 14.7641H72.602Z" fill="white"/>
<path d="M87.6449 4.375V20.409H85.7695L85.5669 18.8967H85.4086C84.844 19.6639 83.7369 20.6348 81.8404 20.6348C78.8136 20.6348 76.6006 18.3099 76.6006 14.7407C76.6006 11.1271 78.8823 8.89192 81.8404 8.89192C83.5797 8.89192 84.7532 9.68238 85.341 10.4275V4.375H87.6449ZM85.341 14.7407C85.341 12.4601 84.0989 10.9013 82.1792 10.9013C80.2374 10.9013 78.9044 12.4601 78.9044 14.7407C78.9044 17.0656 80.2329 18.6254 82.1792 18.6254C84.0989 18.6254 85.341 17.0667 85.341 14.7407V14.7407Z" fill="white"/>
<path d="M100.471 15.3477H92.1144C92.2251 17.357 93.4429 18.7575 95.4357 18.7575C96.8583 18.7575 97.8967 18.1708 98.2588 17.0183H100.473C99.998 19.2767 98.1016 20.6318 95.4368 20.6318C92.1842 20.6318 89.8582 18.3512 89.8582 14.8749C89.8582 11.1939 92.2749 8.89111 95.346 8.89111C98.1016 8.89111 100.518 10.72 100.518 14.6048C100.516 14.8284 100.493 15.0543 100.471 15.3477ZM92.1366 13.7214H98.2798C98.2577 11.9821 97.083 10.7632 95.3438 10.7632C93.5603 10.7632 92.3624 12.0729 92.1366 13.7214Z" fill="white"/>
<path d="M102.825 4.375H105.129V20.409H102.825V4.375Z" fill="white"/>
<path d="M107.561 24.9023V23.1631C107.953 23.2561 108.354 23.3091 108.757 23.3214C109.796 23.3214 110.722 22.8919 111.219 21.6951L111.715 20.4076H110.97L106.612 9.11523H109.005L112.348 18.0351H112.529L115.665 9.11634H118.059L113.361 22.0339C113.046 22.9605 112.233 25.1503 109.252 25.1503C108.68 25.1417 108.111 25.0583 107.561 24.9023Z" fill="white"/>
</svg>
