<svg width="17" height="16" viewBox="0 0 17 16" fill="none" xmlns="http://www.w3.org/2000/svg">
<g clip-path="url(#clip0_24_573)">
<path d="M9.56066 9.06066C9.27936 9.34196 8.89782 9.5 8.5 9.5C8.10218 9.5 7.72064 9.34196 7.43934 9.06066C7.15804 8.77936 7 8.39782 7 8C7 7.60218 7.15804 7.22064 7.43934 6.93934C7.72064 6.65804 8.10218 6.5 8.5 6.5C8.89782 6.5 9.27936 6.65804 9.56066 6.93934C9.84196 7.22064 10 7.60218 10 8C10 8.39782 9.84196 8.77936 9.56066 9.06066Z" fill="white"/>
<path fill-rule="evenodd" clip-rule="evenodd" d="M2.84315 2.34315C4.34344 0.842855 6.37827 0 8.5 0C10.6217 0 12.6566 0.842855 14.1569 2.34315C15.6571 3.84344 16.5 5.87827 16.5 8C16.5 10.1217 15.6571 12.1566 14.1569 13.6569C12.6566 15.1571 10.6217 16 8.5 16C6.37827 16 4.34344 15.1571 2.84315 13.6569C1.34285 12.1566 0.5 10.1217 0.5 8C0.5 5.87827 1.34285 3.84344 2.84315 2.34315ZM3.90381 3.40381C2.68482 4.62279 2 6.27609 2 8C2 9.72391 2.68482 11.3772 3.90381 12.5962C5.12279 13.8152 6.77609 14.5 8.5 14.5C10.2239 14.5 11.8772 13.8152 13.0962 12.5962C14.3152 11.3772 15 9.72391 15 8C15 6.27609 14.3152 4.62279 13.0962 3.40381C11.8772 2.18482 10.2239 1.5 8.5 1.5C6.77609 1.5 5.12279 2.18482 3.90381 3.40381Z" fill="white"/>
</g>
<defs>
<clipPath id="clip0_24_573">
<rect width="16" height="16" fill="white" transform="translate(0.5)"/>
</clipPath>
</defs>
</svg>
